<svg width="28" height="28" viewBox="0 0 28 28" fill="none" xmlns="http://www.w3.org/2000/svg">
<g clip-path="url(#clip0_311_631)">
<path d="M21.9598 10.7256C20.5899 10.739 21.43 9.91483 20.6605 9.92608C20.3089 9.93123 19.9952 10.3687 19.541 10.6054C19.0014 10.8866 18.3092 10.9683 17.7619 10.8778C17.4059 10.8189 17.0476 10.6997 16.7202 10.5399C15.8306 10.1057 15.3431 9.41392 15.4299 8.31018C15.5124 7.2613 15.5037 6.20473 15.5552 5.15264C15.5737 4.7734 15.9442 3.65896 15.716 3.6256C15.3779 3.57614 15.1401 3.77021 15.0487 4.06887C14.8885 4.59297 14.7316 5.13284 14.6825 5.67709C14.5881 6.72474 14.61 7.78457 14.504 8.83036C14.448 9.38382 14.2915 9.95254 14.0618 10.4538C13.6829 11.2804 13.0196 11.4962 11.9901 11.4131C10.9986 11.3331 10.3189 10.8435 9.86175 9.94231C9.7596 9.74096 9.63767 9.54938 9.51158 9.36333C9.29785 9.04795 9.04831 9.07072 8.89249 9.4154C8.80177 9.61604 8.72331 9.82283 8.63418 10.0243C8.22122 10.9579 7.04333 11.5714 6.11731 11.3372C5.65426 11.2201 5.45238 10.6219 5.74035 10.2315C6.18072 9.6346 6.52369 8.98927 6.59828 8.21865C6.65925 7.5888 6.47358 7.05295 6.01185 6.64501C5.92093 6.56469 5.74155 6.49369 5.65542 6.53639C5.55486 6.58625 5.47022 6.7593 5.4527 6.88997C5.41908 7.14076 5.42955 7.39959 5.43597 7.65468C5.47672 9.27359 4.77468 10.3145 3.32565 10.8641C1.61983 11.5111 0.279727 10.1173 0.000289917 8.68132C-0.193073 7.68766 0.144238 6.83919 0.689392 6.06095C1.20134 5.33011 1.83506 4.73138 2.5604 4.17249C2.5372 4.70759 2.54073 5.20319 2.48839 5.69212C2.41762 6.35317 2.308 7.00981 2.2051 7.6666C2.18533 7.79275 2.12903 7.9159 2.07333 8.03171C1.91739 8.356 1.73127 8.35945 1.50912 8.07646C1.45324 7.91335 1.31587 7.69986 1.1751 7.83582C1.03858 7.98017 1.02621 8.08906 0.989252 8.2269C0.958454 8.34177 0.969606 8.47568 0.986961 8.59721C1.03746 8.95087 1.13828 9.28833 1.48511 9.43604C1.83553 9.58528 2.12413 9.40105 2.38992 9.18189C3.09819 8.59788 3.28016 7.76562 3.34454 6.88358C3.43544 5.63826 3.50987 4.39148 3.61353 3.14739C3.63696 2.8663 3.72769 2.58339 3.82922 2.31923C4.0882 1.64536 4.67029 1.39868 5.31037 1.655C5.19788 2.07375 5.04908 2.48439 4.98127 2.90944C4.83309 3.83827 5.01598 4.69574 5.61042 5.42268C5.90643 5.78466 6.27716 5.98202 6.74725 5.90206C7.00399 5.85839 7.08326 5.69918 6.93299 5.47684C6.78225 5.2538 6.61414 5.04179 6.43762 4.84064C5.94844 4.28321 5.81393 3.63475 5.98302 2.91048C6.16314 2.13896 6.47116 1.44498 7.1662 1.04272C7.92558 0.603229 8.9656 0.883312 9.664 1.69991C9.80759 1.8678 9.92826 2.05756 10.0267 2.19238C9.79642 2.51272 9.58285 2.78872 9.39288 3.08177C9.27441 3.26452 9.27811 3.46117 9.48584 3.58588C9.69556 3.71177 9.8833 3.68112 10.0484 3.47847C10.2009 3.29143 10.3487 3.08835 10.5355 2.94674C11.0356 2.56771 11.703 2.65697 12.1204 3.1345C12.1658 3.1864 12.2043 3.26859 12.2048 3.33702C12.2098 4.1416 12.2202 4.94662 12.1995 5.75067C12.1917 6.05339 12.1431 6.36706 12.05 6.65279C11.8221 7.35249 11.2075 7.74493 10.5763 7.63776C9.99742 7.5395 9.5636 6.96606 9.52572 6.24447C9.51887 6.11389 9.53894 5.97996 9.51863 5.85255C9.50897 5.54343 9.19862 5.60275 9.1359 5.65731C8.55758 6.16039 8.41291 6.95247 8.76126 7.64005C9.58338 9.26276 11.6756 9.38731 12.6469 7.87228C13.0069 7.31059 13.2064 6.68463 13.2384 6.01543C13.2775 5.19924 13.2446 4.37911 13.2867 3.56322C13.3275 2.77342 13.5955 2.06689 14.1768 1.53501C14.6274 1.12273 15.1456 1.03513 15.706 1.25383C16.7828 1.67406 17.3401 2.76754 17.1032 4.06877C16.9433 4.94751 16.6953 5.80962 16.5604 6.69175C16.4758 7.24517 16.4686 7.8294 16.532 8.38647C16.634 9.28416 17.1717 9.81889 18.0042 10.0121C18.8434 10.2069 19.5532 9.98093 20.0866 9.24824C20.5263 8.6442 20.7197 7.937 20.8155 7.19513C20.9199 6.38757 20.8855 5.58886 20.6532 4.80658C20.4938 4.36165 20.217 4.31481 20.0792 4.34093C19.9876 4.35829 19.8744 4.58872 19.871 4.72656C19.8547 5.37976 19.9035 6.03568 19.8702 6.68727C19.8349 7.37948 19.7621 8.07619 19.2692 8.6207C18.9104 9.01709 18.4553 9.1782 18.087 9.02412C17.6855 8.85616 17.4274 8.41906 17.4571 7.8594C17.4784 7.45666 17.5453 7.05406 17.621 6.6576C17.7826 5.81182 17.9788 4.97319 18.1283 4.12522C18.1921 3.76316 18.1744 3.38506 18.1943 3.00342C19.1409 2.61962 19.7104 2.39325 20.5902 3.3906C21.4039 4.31294 21.9719 5.4054 21.9411 6.7163C21.9306 7.16706 21.7435 7.61184 21.6492 8.06218C21.57 8.44071 21.5039 8.82256 21.4431 9.20492C21.432 9.27461 21.3672 9.5965 21.5117 9.50972C21.7108 9.37225 21.9073 9.2841 22.0432 9.13454C22.6601 8.45558 22.9184 7.61656 22.9629 6.69263C22.9688 6.56847 22.9653 6.44381 22.9671 6.3194C22.9673 6.30766 22.9746 6.29604 22.9903 6.25023C23.492 6.58566 23.8956 7.00074 24.0373 7.61408C24.2255 8.42918 24.076 9.20701 23.6435 9.90391C23.2074 10.6066 22.8475 10.7169 21.9598 10.7256ZM12.9957 1.48206C13.0997 1.29369 13.087 1.17569 12.9645 1.02053C12.3225 0.206798 11.4665 -0.0322211 10.5135 0.00338457C10.1764 0.0159798 9.86561 0.123596 9.66208 0.430885C9.8743 0.694022 10.0958 0.926015 10.2676 1.19357C10.4426 1.4661 10.5688 1.77362 10.7222 2.07736C11.3794 1.95084 11.9786 2.1511 12.5267 2.52591C12.6856 2.16439 12.8159 1.80794 12.9957 1.48206Z" fill="#FC8490"/>
<path d="M22.0623 13.5641C22.8789 13.586 23.2477 13.6709 23.5662 13.9873C24.6145 15.029 24.4918 16.8674 23.319 17.7269C23.2701 17.7628 23.2176 17.7933 23.1468 17.8392C23.1014 16.5663 22.8826 15.401 21.7537 14.6967C21.71 14.7078 21.6664 14.7188 21.6228 14.7299C21.6228 14.976 21.5933 15.227 21.631 15.4669C21.669 15.7087 21.7565 15.9471 21.8519 16.1737C22.2351 17.0839 22.1967 17.9906 21.8222 18.8836C21.5243 19.5941 21.1633 20.2706 20.5945 20.8005C20.0839 21.2761 19.5088 21.4413 18.8446 21.18C18.6783 21.1146 18.5053 21.0674 18.3338 21.0113C18.4365 19.5606 17.8561 18.2386 17.6762 16.8489C17.6358 16.5367 17.615 16.2095 17.6594 15.9005C17.7577 15.2151 18.4381 14.8843 19.0299 15.215C19.629 15.5497 19.9093 16.1167 19.9576 16.7804C20.0175 17.6039 20.0132 18.4325 20.0281 19.2591C20.0316 19.4572 20.0084 19.6619 20.2525 19.7163C20.4907 19.7694 20.6749 19.6696 20.7506 19.4286C21.2233 17.9227 21.1548 16.4558 20.3557 15.0823C19.8667 14.2416 19.0537 13.949 18.12 14.1856C17.2265 14.412 16.7451 15.0114 16.6511 16.015C16.5515 17.0794 16.8294 18.0886 17.0855 19.0994C17.2537 19.7632 17.3988 20.425 17.2527 21.1152C17.0309 22.1633 15.9728 22.9671 15.04 22.7855C14.5006 22.6806 14.1412 22.3174 13.8714 21.8546C13.5442 21.2931 13.4265 20.6785 13.4379 20.0239C13.4543 19.0887 13.518 18.1474 13.2573 17.2302C13.0938 16.6552 12.8139 16.1463 12.3879 15.7384C11.4908 14.8794 9.95433 15.0971 9.11817 16.19C8.57297 16.9025 8.61471 17.7243 9.24494 18.3567C9.32208 18.4341 9.47265 18.4678 9.58401 18.4582C9.62693 18.4545 9.67274 18.2761 9.68686 18.1728C9.71608 17.9592 9.70106 17.7372 9.74669 17.5284C9.88109 16.9134 10.2915 16.5379 10.8696 16.4698C11.3575 16.4123 11.8979 16.7538 12.1546 17.2822C12.4034 17.7943 12.3745 18.3451 12.3703 18.8937C12.366 19.4606 12.3772 20.0278 12.367 20.5945C12.365 20.7017 12.3218 20.8348 12.2513 20.9098C11.766 21.4258 10.9846 21.4054 10.4751 20.8709C10.3759 20.7669 10.297 20.6425 10.207 20.529C10.0519 20.3333 9.85676 20.3177 9.65792 20.432C9.45406 20.5491 9.4393 20.7407 9.56097 20.9227C9.75175 21.2081 9.96372 21.4784 10.1833 21.7776C9.88752 22.4888 8.90906 23.1264 8.0852 23.1073C7.27708 23.0887 6.63605 22.5312 6.27599 21.5334C5.94574 20.6182 6.01619 19.7842 6.72971 19.069C6.87485 18.9235 6.9982 18.7509 7.11151 18.577C7.238 18.3828 7.19015 18.239 6.95391 18.1873C6.41633 18.0697 6.01772 18.3206 5.71147 18.7311C4.95584 19.7439 4.96485 20.8485 5.38981 21.9906C5.42716 22.091 5.47167 22.1885 5.51239 22.2862C5.00067 22.5737 4.28325 22.3763 4.07805 21.8017C3.86981 21.2186 3.74364 20.5899 3.67844 19.9704C3.56188 18.8628 3.53751 17.7452 3.43627 16.6356C3.38044 16.0237 3.12436 15.482 2.66055 15.0703C2.3579 14.8017 2.03305 14.5585 1.60553 14.7586C1.28144 14.9103 1.0825 15.4332 1.16259 15.9148C1.185 16.0495 1.2841 16.1707 1.34802 16.2981C1.46081 16.2196 1.5987 16.1623 1.68155 16.0584C1.90583 15.7774 2.1399 15.7728 2.2457 16.1207C2.40722 16.6517 2.53524 17.2012 2.60378 17.7526C2.68888 18.4373 2.69886 19.132 2.7472 19.9186C2.30298 19.5169 1.90279 19.1884 1.54068 18.8202C0.880838 18.1493 0.330906 17.4042 0.151241 16.4301C-0.163429 14.7239 1.34681 12.9889 2.96563 13.2054C4.55828 13.4183 5.65476 14.7375 5.61068 16.3829C5.60334 16.6569 5.58985 16.9341 5.62268 17.2043C5.63865 17.3356 5.72913 17.5039 5.83449 17.5618C5.9127 17.6048 6.09704 17.5302 6.18636 17.451C6.78001 16.9243 6.92909 16.2323 6.68281 15.5077C6.4961 14.9583 6.18966 14.4449 5.88852 13.9463C5.66852 13.5819 5.82528 13.0168 6.23743 12.8968C7.10764 12.6435 8.30214 13.1887 8.74241 14.0481C8.85769 14.2731 8.94707 14.512 9.05267 14.7425C9.20904 15.0838 9.47375 15.1111 9.68532 14.7992C9.85183 14.5538 10.0186 14.3051 10.1527 14.0404C10.8331 12.6982 12.4431 12.6564 13.3961 12.934C13.8872 13.077 14.1485 13.5012 14.3464 13.9504C14.7325 14.8271 14.7127 15.7718 14.7699 16.7067C14.8266 17.6324 14.9168 18.557 15.0298 19.4772C15.0591 19.7159 15.2044 19.9536 15.3428 20.1585C15.4209 20.2741 15.5881 20.3694 15.7253 20.3861C15.8453 20.4007 16.0323 20.3257 16.09 20.2279C16.1347 20.1521 16.0236 19.9807 15.9851 19.8508C15.8947 19.5463 15.7482 19.2453 15.7278 18.9357C15.6637 17.9631 15.6555 16.9867 15.6106 16.0126C15.5415 14.5133 16.1955 13.6577 17.7181 13.3731C18.2032 13.2824 18.7152 13.2948 19.2107 13.3276C19.6483 13.3566 20.0036 13.5987 20.2371 14.0013C20.3067 14.1214 20.3772 14.2467 20.4721 14.3441C20.5573 14.4315 20.8438 14.634 21.0137 14.2504C21.0137 14.2504 21.2458 13.5423 22.0623 13.5641ZM9.86702 23.7625C10.4805 24.6042 12.7594 24.0593 13.2509 22.9333C13.0625 22.5082 12.8826 22.1024 12.6935 21.6759C12.1449 22.0653 11.5316 22.2299 10.9545 22.1301C10.5728 22.7031 10.2241 23.2265 9.86702 23.7625Z" fill="#FC8490"/>
</g>
<defs>
<clipPath id="clip0_311_631">
<rect width="28" height="28" fill="white"/>
</clipPath>
</defs>
</svg>
