<svg width="169" height="64" viewBox="0 0 169 64" fill="none" xmlns="http://www.w3.org/2000/svg">
<g clip-path="url(#clip0_343_56)">
<path d="M50.1939 24.5157C47.0626 24.5464 48.9828 22.6625 47.2241 22.6882C46.4203 22.6999 45.7033 23.6998 44.6651 24.2409C43.4317 24.8838 41.8496 25.0703 40.5986 24.8635C39.785 24.729 38.9659 24.4564 38.2175 24.0911C36.1843 23.0988 35.07 21.5175 35.2684 18.9947C35.4569 16.5973 35.437 14.1822 35.5547 11.7775C35.5971 10.9106 36.4439 8.36334 35.9224 8.28707C35.1494 8.17404 34.6059 8.61763 34.3971 9.30027C34.0308 10.4982 33.6721 11.7322 33.5601 12.9762C33.3443 15.3708 33.3942 17.7933 33.1521 20.1837C33.0239 21.4487 32.6662 22.7487 32.1412 23.8943C31.2753 25.7838 29.7592 26.277 27.4058 26.0871C25.1396 25.9043 23.5861 24.785 22.5411 22.7253C22.3076 22.2651 22.029 21.8272 21.7408 21.4019C21.2522 20.681 20.6819 20.7331 20.3257 21.5209C20.1183 21.9795 19.939 22.4522 19.7353 22.9127C18.7914 25.0466 16.099 26.4489 13.9824 25.9136C12.924 25.6459 12.4626 24.2786 13.1208 23.3864C14.1274 22.022 14.9113 20.5469 15.0818 18.7855C15.2212 17.3458 14.7967 16.121 13.7414 15.1886C13.5336 15.005 13.1236 14.8427 12.9267 14.9403C12.6968 15.0543 12.5034 15.4498 12.4633 15.7485C12.3865 16.3217 12.4104 16.9133 12.4251 17.4964C12.5182 21.1968 10.9136 23.576 7.6015 24.8322C3.70247 26.3111 0.639378 23.1253 0.00066355 19.843C-0.441309 17.5718 0.329687 15.6324 1.57575 13.8536C2.74593 12.1831 4.19442 10.8146 5.85234 9.53712C5.79931 10.7602 5.80739 11.893 5.68775 13.0106C5.52598 14.5215 5.27542 16.0224 5.04022 17.5237C4.99505 17.812 4.86634 18.0935 4.73904 18.3582C4.3826 19.0994 3.95719 19.1073 3.44941 18.4605C3.32169 18.0877 3.0077 17.5997 2.68595 17.9104C2.37389 18.2404 2.34561 18.4893 2.26115 18.8043C2.19075 19.0669 2.21624 19.373 2.25591 19.6508C2.37135 20.4591 2.60179 21.2305 3.39453 21.5681C4.19549 21.9092 4.85516 21.4881 5.46267 20.9872C7.08157 19.6523 7.4975 17.75 7.64466 15.7339C7.85243 12.8874 8.02255 10.0377 8.2595 7.19404C8.31305 6.55155 8.52044 5.9049 8.75249 5.3011C9.34446 3.76083 10.675 3.19699 12.138 3.78285C11.8809 4.74 11.5408 5.67861 11.3858 6.65016C11.0471 8.77319 11.4651 10.7331 12.8238 12.3947C13.5004 13.2221 14.3478 13.6732 15.4223 13.4904C16.0091 13.3906 16.1903 13.0267 15.8468 12.5185C15.5023 12.0087 15.118 11.5241 14.7146 11.0643C13.5964 9.79019 13.289 8.30801 13.6755 6.65253C14.0872 4.88905 14.7912 3.30281 16.3799 2.38337C18.1156 1.37881 20.4928 2.019 22.0892 3.88551C22.4174 4.26926 22.6932 4.70301 22.9182 5.01115C22.3918 5.74337 21.9037 6.37421 21.4694 7.04405C21.1986 7.46176 21.2071 7.91125 21.6819 8.19629C22.1613 8.48404 22.5904 8.41399 22.9678 7.9508C23.3162 7.52326 23.6542 7.05908 24.0812 6.73541C25.2243 5.86905 26.7496 6.07308 27.7038 7.16457C27.8075 7.2832 27.8956 7.47106 27.8966 7.62748C27.9082 9.46652 27.9319 11.3066 27.8845 13.1444C27.8667 13.8363 27.7557 14.5533 27.5429 15.2064C27.0218 16.8057 25.6172 17.7027 24.1743 17.4577C22.8512 17.2331 21.8596 15.9224 21.7731 14.2731C21.7574 13.9746 21.8033 13.6685 21.7569 13.3773C21.7348 12.6707 21.0254 12.8063 20.882 12.931C19.5602 14.0809 19.2295 15.8914 20.0257 17.463C21.9049 21.172 26.6872 21.4567 28.9071 17.9938C29.7302 16.7099 30.1861 15.2792 30.2593 13.7496C30.3485 11.884 30.2734 10.0094 30.3697 8.14449C30.4629 6.33925 31.0755 4.72432 32.4042 3.50859C33.4341 2.56624 34.6185 2.366 35.8994 2.86589C38.3607 3.82642 39.6345 6.32581 39.0931 9.30005C38.7275 11.3086 38.1606 13.2791 37.8523 15.2954C37.6589 16.5604 37.6426 17.8958 37.7873 19.1691C38.0206 21.2209 39.2496 22.4432 41.1524 22.8848C43.0707 23.33 44.6931 22.8136 45.9122 21.1388C46.9172 19.7582 47.3592 18.1417 47.5784 16.446C47.8169 14.6001 47.7383 12.7745 47.2072 10.9865C46.8429 9.96949 46.2102 9.86242 45.8953 9.92212C45.686 9.9618 45.4273 10.4885 45.4194 10.8036C45.3821 12.2966 45.4937 13.7958 45.4176 15.2852C45.3368 16.8674 45.1705 18.4599 44.0439 19.7045C43.2238 20.6105 42.1835 20.9787 41.3416 20.6266C40.4239 20.2426 39.834 19.2436 39.9019 17.9644C39.9507 17.0438 40.1036 16.1236 40.2766 15.2174C40.6458 13.2842 41.0944 11.3673 41.436 9.42909C41.5819 8.6015 41.5414 7.73728 41.5869 6.86496C43.7507 5.98771 45.0522 5.47029 47.0633 7.74993C48.9232 9.85815 50.2215 12.3552 50.1512 15.3516C50.127 16.3819 49.6994 17.3985 49.4839 18.4278C49.3028 19.2931 49.1517 20.1659 49.0128 21.0398C48.9875 21.1991 48.8394 21.9349 49.1697 21.7365C49.6247 21.4223 50.0738 21.2208 50.3844 20.8789C51.7945 19.327 52.3849 17.4093 52.4866 15.2974C52.5002 15.0136 52.492 14.7287 52.4962 14.4443C52.4966 14.4175 52.5133 14.3909 52.5491 14.2862C53.6961 15.0529 54.6185 16.0017 54.9423 17.4036C55.3727 19.2667 55.0308 21.0446 54.0422 22.6375C53.0454 24.2437 52.2229 24.4958 50.1939 24.5157ZM29.7046 3.38756C29.9422 2.95702 29.9131 2.6873 29.6332 2.33265C28.1656 0.47268 26.2091 -0.0736481 24.0309 0.00773615C23.2604 0.0365253 22.55 0.282506 22.0847 0.98488C22.5698 1.58634 23.0761 2.11661 23.4688 2.72816C23.8689 3.35108 24.1573 4.05398 24.508 4.74824C26.0101 4.45905 27.3796 4.9168 28.6325 5.77351C28.9957 4.94717 29.2934 4.13244 29.7046 3.38756Z" fill="#FC8490"/>
<path d="M50.4282 31.0037C52.2947 31.0538 53.1377 31.2479 53.8655 31.9711C56.2617 34.3521 55.9812 38.554 53.3006 40.5187C53.1889 40.6006 53.0688 40.6703 52.9071 40.7752C52.8031 37.8658 52.3031 35.2023 49.7227 33.5925C49.6229 33.6178 49.5232 33.6431 49.4234 33.6684C49.4234 34.2309 49.3562 34.8046 49.4423 35.3528C49.5291 35.9056 49.7292 36.4504 49.9473 36.9685C50.823 39.049 50.7352 41.1214 49.8793 43.1626C49.1984 44.7865 48.3733 46.3327 47.073 47.544C45.906 48.6311 44.5915 49.0087 43.0734 48.4115C42.6933 48.2619 42.2977 48.154 41.9058 48.0258C42.1405 44.7099 40.8141 41.6882 40.4027 38.5117C40.3103 37.7981 40.2629 37.0503 40.3643 36.3439C40.589 34.7774 42.1442 34.0213 43.497 34.7771C44.8664 35.5422 45.507 36.8382 45.6173 38.3552C45.7543 40.2374 45.7445 42.1314 45.7784 44.0207C45.7865 44.4735 45.7335 44.9415 46.2914 45.0659C46.8358 45.1872 47.257 44.9591 47.43 44.4081C48.5104 40.9662 48.3538 37.6134 46.5274 34.4738C45.4096 32.5523 43.5513 31.8835 41.4172 32.4243C39.3749 32.9418 38.2746 34.3117 38.0598 36.6057C37.8319 39.0387 38.4672 41.3455 39.0525 43.6557C39.437 45.173 39.7687 46.6858 39.4348 48.2633C38.9277 50.6589 36.5093 52.4962 34.3772 52.0812C33.1441 51.8413 32.3227 51.0112 31.7061 49.9533C30.9582 48.67 30.6891 47.2651 30.7153 45.769C30.7526 43.6313 30.8984 41.4798 30.3023 39.3834C29.9287 38.069 29.2888 36.9059 28.3151 35.9735C26.2647 34.0101 22.7528 34.5078 20.8415 37.0056C19.5954 38.6343 19.6908 40.5127 21.1313 41.9582C21.3076 42.1352 21.6518 42.2122 21.9063 42.1902C22.0044 42.1817 22.1091 41.7739 22.1414 41.5379C22.2082 41.0497 22.1739 40.5421 22.2781 40.0649C22.5854 38.6593 23.5234 37.8009 24.8447 37.6452C25.9601 37.5137 27.1952 38.2943 27.782 39.5021C28.3506 40.6727 28.2845 41.9316 28.275 43.1856C28.2652 44.4815 28.2907 45.7777 28.2673 47.0732C28.2629 47.3183 28.1642 47.6225 28.003 47.7938C26.8936 48.9733 25.1078 48.9267 23.9431 47.705C23.7164 47.4672 23.5361 47.1829 23.3304 46.9235C22.9757 46.4762 22.5297 46.4405 22.0752 46.7016C21.6093 46.9693 21.5756 47.4074 21.8537 47.8234C22.2897 48.4756 22.7742 49.0935 23.276 49.7775C22.6001 51.4031 20.3636 52.8603 18.4805 52.8168C16.6333 52.7741 15.1681 51.4999 14.3451 49.2192C13.5903 47.1274 13.7513 45.2211 15.3822 43.5863C15.7139 43.2538 15.9959 42.8593 16.2549 42.4617C16.544 42.0179 16.4346 41.6892 15.8947 41.5711C14.6659 41.3022 13.7548 41.8756 13.0548 42.8139C11.3276 45.1289 11.3482 47.6538 12.3196 50.2642C12.4049 50.4936 12.5067 50.7165 12.5998 50.94C11.4301 51.5969 9.79029 51.1458 9.32125 49.8324C8.84529 48.4996 8.55689 47.0626 8.40786 45.6465C8.14145 43.115 8.08575 40.5606 7.85432 38.0242C7.72671 36.6256 7.1414 35.3874 6.08125 34.4464C5.3895 33.8325 4.64696 33.2766 3.66979 33.734C2.929 34.0808 2.47429 35.2759 2.65736 36.3766C2.70858 36.6845 2.93509 36.9615 3.08119 37.2527C3.33899 37.0733 3.65418 36.9423 3.84356 36.705C4.35619 36.0626 4.89119 36.0522 5.13303 36.8472C5.50223 38.061 5.79484 39.3171 5.95148 40.5773C6.14601 42.1425 6.16881 43.7302 6.27932 45.5282C5.26396 44.61 4.34924 43.8591 3.52156 43.0176C2.01335 41.484 0.756356 39.7811 0.345696 37.5545C-0.373553 33.6547 3.07843 29.689 6.77859 30.1837C10.4189 30.6704 12.9252 33.6858 12.8244 37.4466C12.8076 38.0728 12.7768 38.7066 12.8518 39.324C12.8883 39.6243 13.0952 40.009 13.336 40.1414C13.5148 40.2397 13.9361 40.0691 14.1402 39.888C15.4972 38.6841 15.8379 37.1024 15.275 35.4461C14.8482 34.1904 14.1478 33.017 13.4595 31.8771C12.9566 31.0444 13.3149 29.7527 14.257 29.4784C16.246 28.8994 18.9763 30.1457 19.9826 32.1099C20.2461 32.6242 20.4505 33.1704 20.6918 33.6971C21.0492 34.4772 21.6543 34.5396 22.1379 33.8268C22.5185 33.2658 22.8995 32.6973 23.2062 32.0924C24.7613 29.0244 28.4413 28.929 30.6198 29.5634C31.7422 29.8902 32.3395 30.8599 32.7917 31.8865C33.6742 33.8905 33.6289 36.0498 33.7598 38.1867C33.8895 40.3026 34.0956 42.416 34.3538 44.5194C34.4207 45.0649 34.7528 45.6082 35.0692 46.0766C35.2477 46.3408 35.63 46.5587 35.9436 46.5968C36.2177 46.6301 36.6453 46.4586 36.7772 46.2351C36.8794 46.062 36.6254 45.6702 36.5373 45.3732C36.3307 44.6773 35.9959 43.9892 35.9493 43.2815C35.8028 41.0584 35.784 38.8268 35.6814 36.6002C35.5235 33.1733 37.0183 31.2176 40.4985 30.5671C41.6073 30.3598 42.7777 30.388 43.9102 30.4631C44.9103 30.5294 45.7226 31.0827 46.2562 32.0029C46.4154 32.2776 46.5765 32.5639 46.7933 32.7865C46.9881 32.9863 47.6429 33.4491 48.0313 32.5723C48.0313 32.5723 48.5618 30.9537 50.4282 31.0037ZM22.5532 54.3142C23.9555 56.2383 29.1644 54.9927 30.2878 52.419C29.8571 51.4474 29.4458 50.5198 29.0137 49.545C27.7597 50.4349 26.3579 50.8111 25.0388 50.5831C24.1663 51.8928 23.3693 53.0892 22.5532 54.3142Z" fill="#FC8490"/>
</g>
<path d="M76.499 42C74.295 42 72.3423 41.5843 70.641 40.753C68.959 39.9217 67.6443 38.7423 66.697 37.215C65.769 35.6683 65.305 33.8703 65.305 31.821C65.305 29.7523 65.769 27.9253 66.697 26.34C67.625 24.7353 68.901 23.498 70.525 22.628C72.149 21.7387 73.9663 21.294 75.977 21.294C77.9877 21.294 79.805 21.7387 81.429 22.628C83.053 23.498 84.329 24.7353 85.257 26.34C86.185 27.9253 86.649 29.7523 86.649 31.821C86.649 33.4643 86.272 34.9723 85.518 36.345C84.7833 37.6983 83.807 38.7327 82.589 39.448H86.968V42H76.499ZM75.977 39.303C77.4657 39.303 78.79 39.013 79.95 38.433C81.11 37.853 82.009 37.0023 82.647 35.881C83.3043 34.7403 83.633 33.387 83.633 31.821C83.633 30.2743 83.2947 28.9113 82.618 27.732C81.9413 26.5333 81.023 25.615 79.863 24.977C78.703 24.339 77.4077 24.02 75.977 24.02C74.5463 24.02 73.2413 24.339 72.062 24.977C70.902 25.615 69.9837 26.5237 69.307 27.703C68.6303 28.8823 68.292 30.255 68.292 31.821C68.292 33.4063 68.611 34.7597 69.249 35.881C69.9063 37.0023 70.815 37.853 71.975 38.433C73.135 39.013 74.469 39.303 75.977 39.303ZM95.1281 42.435C93.2528 42.435 91.8318 41.9323 90.8651 40.927C89.9178 39.9217 89.4441 38.578 89.4441 36.896V28.08H92.3731V36.78C92.3731 39.0033 93.4848 40.115 95.7081 40.115C97.6608 40.115 99.1881 39.2353 100.29 37.476V28.08H103.219V42H100.377V40.028C99.7198 40.8593 98.9368 41.4683 98.0281 41.855C97.1388 42.2417 96.1721 42.435 95.1281 42.435ZM114.634 42.435C112.062 42.435 110.042 41.797 108.573 40.521C107.123 39.2257 106.398 37.4083 106.398 35.069C106.398 32.7877 107.045 30.98 108.341 29.646C109.655 28.312 111.521 27.645 113.938 27.645C115.542 27.645 116.905 27.9543 118.027 28.573C119.148 29.1723 119.989 30.0133 120.55 31.096C121.13 32.1593 121.42 33.3773 121.42 34.75V36.2H109.182C109.278 37.5147 109.829 38.5007 110.835 39.158C111.859 39.796 113.242 40.115 114.982 40.115C115.871 40.115 116.77 40.0377 117.679 39.883C118.587 39.709 119.39 39.4867 120.086 39.216V41.565C119.467 41.8163 118.645 42.0193 117.621 42.174C116.615 42.348 115.62 42.435 114.634 42.435ZM118.665 34.141C118.626 32.8263 118.191 31.8113 117.36 31.096C116.548 30.3613 115.388 29.994 113.88 29.994C112.41 29.994 111.27 30.371 110.458 31.125C109.646 31.879 109.22 32.8843 109.182 34.141H118.665ZM124.041 40.115L131.958 30.342H124.215V28.08H135.612V29.994L127.695 39.738H135.902V42H124.041V40.115ZM137.777 40.115L145.694 30.342H137.951V28.08H149.348V29.994L141.431 39.738H149.638V42H137.777V40.115ZM160.484 42.435C157.913 42.435 155.893 41.797 154.423 40.521C152.973 39.2257 152.248 37.4083 152.248 35.069C152.248 32.7877 152.896 30.98 154.191 29.646C155.506 28.312 157.372 27.645 159.788 27.645C161.393 27.645 162.756 27.9543 163.877 28.573C164.999 29.1723 165.84 30.0133 166.4 31.096C166.98 32.1593 167.27 33.3773 167.27 34.75V36.2H155.032C155.129 37.5147 155.68 38.5007 156.685 39.158C157.71 39.796 159.092 40.115 160.832 40.115C161.722 40.115 162.621 40.0377 163.529 39.883C164.438 39.709 165.24 39.4867 165.936 39.216V41.565C165.318 41.8163 164.496 42.0193 163.471 42.174C162.466 42.348 161.47 42.435 160.484 42.435ZM164.515 34.141C164.477 32.8263 164.042 31.8113 163.21 31.096C162.398 30.3613 161.238 29.994 159.73 29.994C158.261 29.994 157.12 30.371 156.308 31.125C155.496 31.879 155.071 32.8843 155.032 34.141H164.515Z" fill="#FC8490"/>
<defs>
<clipPath id="clip0_343_56">
<rect width="64" height="64" fill="white"/>
</clipPath>
</defs>
</svg>
